<svg width="20" height="20" viewBox="0 0 20 20" fill="none" xmlns="http://www.w3.org/2000/svg">
  <path
    d="M6.65764 16.2475L12.7476 10L6.65764 3.7525C6.54862 3.64088 6.48758 3.49104 6.48758 3.335C6.48758 3.17897 6.54862 3.02913 6.65764 2.9175C6.7106 2.86346 6.77381 2.82052 6.84356 2.79121C6.91332 2.76189 6.98823 2.7468 7.06389 2.7468C7.13956 2.7468 7.21447 2.76189 7.28422 2.79121C7.35398 2.82052 7.41719 2.86346 7.47014 2.9175L13.9501 9.56375C14.0639 9.68047 14.1276 9.83701 14.1276 10C14.1276 10.163 14.0639 10.3195 13.9501 10.4363L7.47139 17.0825C7.4184 17.1369 7.35504 17.1802 7.28505 17.2097C7.21506 17.2393 7.13986 17.2545 7.06389 17.2545C6.98793 17.2545 6.91273 17.2393 6.84274 17.2097C6.77275 17.1802 6.70939 17.1369 6.65639 17.0825C6.54737 16.9709 6.48633 16.821 6.48633 16.665C6.48633 16.509 6.54737 16.3591 6.65639 16.2475H6.65764Z" />
</svg>