<svg width="30" height="30" viewBox="0 0 30 30" fill="none" xmlns="http://www.w3.org/2000/svg">
<g clip-path="url(#clip0_2624_20646)">
<path d="M17.2332 5.53411L12.7795 10.0763C12.7709 10.085 12.7655 10.0956 12.757 10.1045C13.8541 9.94149 14.9813 10.0532 16.0261 10.4687L19.0488 7.38594C20.0502 6.36464 21.6788 6.36464 22.6802 7.38594C23.6815 8.40715 23.6815 10.0682 22.6802 11.0895C22.5094 11.2637 17.969 15.8944 18.2265 15.6317C17.2172 16.6611 15.5614 16.6171 14.5952 15.6317C14.0947 15.1213 13.28 15.1213 12.7795 15.6317L12 16.4266C12.2162 16.8013 12.4641 17.1618 12.7795 17.4835C14.6813 19.4232 17.955 19.5782 20.0146 17.5065C20.0232 17.4978 20.0336 17.4923 20.0422 17.4835L24.4959 12.9413C26.5014 10.8958 26.5014 7.5796 24.4959 5.53411C22.4903 3.48863 19.2387 3.48863 17.2332 5.53411Z" fill="#1F1F1F"/>
<path d="M13.9767 19.526L10.9464 22.6165C9.94576 23.6371 8.3182 23.6371 7.3176 22.6165C6.31691 21.596 6.31691 19.9362 7.3176 18.9156L11.7778 14.3668C12.7864 13.3382 14.4411 13.3821 15.4067 14.3668C15.9067 14.8769 16.7209 14.8769 17.2211 14.3668L18 13.5724C17.7839 13.198 17.5362 12.8378 17.2211 12.5164C15.3242 10.5818 12.0552 10.4172 9.99096 12.4934C9.98236 12.5021 9.97201 12.5076 9.96337 12.5164L5.50311 17.0653C3.499 19.1092 3.49892 22.4231 5.50311 24.4671C7.50731 26.511 10.7567 26.511 12.7608 24.4671L17.221 19.9182C17.2296 19.9095 17.235 19.899 17.2435 19.8901C16.1471 20.0529 15.0208 19.9413 13.9767 19.526Z" fill="#1F1F1F"/>
</g>
<defs>
<clipPath id="clip0_2624_20646">
<rect width="30" height="30" fill="white"/>
</clipPath>
</defs>
</svg>
