<svg width="30" height="30" viewBox="0 0 30 30" fill="none" xmlns="http://www.w3.org/2000/svg">
<g clip-path="url(#clip0_2624_8113)">
<path d="M8.83667 19.8012C8.83667 19.303 8.49096 19.0059 7.88099 19.0059C7.63192 19.0059 7.46323 19.0304 7.375 19.054V20.6525C7.47947 20.676 7.6079 20.6838 7.78492 20.6838C8.43509 20.6838 8.83667 20.3553 8.83667 19.8012ZM12.6126 19.0226C12.3395 19.0226 12.163 19.0462 12.0586 19.0706V22.6109C12.163 22.6354 12.3317 22.6354 12.4842 22.6354C13.5923 22.6432 14.3151 22.0332 14.3151 20.7408C14.3229 19.6168 13.6643 19.0226 12.6126 19.0226Z" fill="#1F1F1F"/>
<path d="M19.6297 0.5H7.58051C5.82024 0.5 4.38756 1.93367 4.38756 3.69295V15.4999H4.0757C3.36524 15.4999 2.78906 16.0756 2.78906 16.7866V24.5896C2.78906 25.3006 3.36518 25.8762 4.0757 25.8762H4.38756V27.307C4.38756 29.0682 5.82024 30.4999 7.58051 30.4999H24.0212C25.7803 30.4999 27.2132 29.0681 27.2132 27.307V8.05687L19.6297 0.5ZM6.16445 18.1948C6.54152 18.1311 7.07153 18.083 7.81827 18.083C8.5729 18.083 9.11075 18.2271 9.47214 18.5164C9.81735 18.7891 10.0503 19.2391 10.0503 19.7688C10.0503 20.2983 9.87379 20.7485 9.5526 21.0534C9.13483 21.4467 8.51703 21.6232 7.79431 21.6232C7.63346 21.6232 7.48929 21.6152 7.37655 21.5996V23.5345H6.16445V18.1948ZM24.0212 28.5445H7.58051C6.89893 28.5445 6.3439 27.9895 6.3439 27.307V25.8762H21.6699C22.3805 25.8762 22.9566 25.3006 22.9566 24.5896V16.7866C22.9566 16.0756 22.3805 15.4999 21.6699 15.4999H6.3439V3.69295C6.3439 3.01236 6.89899 2.45734 7.58051 2.45734L18.8982 2.44551V6.62892C18.8982 7.85085 19.8896 8.84324 21.1125 8.84324L25.2106 8.83148L25.2567 27.3069C25.2567 27.9895 24.7027 28.5445 24.0212 28.5445ZM10.8319 23.51V18.1948C11.2815 18.1232 11.8674 18.083 12.4858 18.083C13.5134 18.083 14.1798 18.2674 14.702 18.6606C15.2639 19.0784 15.6169 19.7443 15.6169 20.7003C15.6169 21.7359 15.2399 22.4508 14.7176 22.892C14.1479 23.3657 13.2805 23.5903 12.221 23.5903C11.5864 23.5903 11.1368 23.5501 10.8319 23.51ZM19.5945 20.3631V21.3584H17.6513V23.5345H16.423V18.1232H19.7308V19.1264H17.6513V20.3631H19.5945Z" fill="#1F1F1F"/>
</g>
<defs>
<clipPath id="clip0_2624_8113">
<rect width="30" height="30" fill="white" transform="translate(0 0.5)"/>
</clipPath>
</defs>
</svg>
